<svg width="111" height="24" viewBox="0 0 111 24" fill="none" xmlns="http://www.w3.org/2000/svg">
<path d="M19.7212 21.9523H24.0882L29.7879 9.4092L35.2416 21.9523H39.6701L29.8699 0.145325L19.7212 21.9523Z" fill="#211F21"/>
<path d="M49.9446 9.73521L48.0994 8.97688C47.0127 8.52599 46.4592 7.99311 46.4592 7.35775C46.4592 6.88636 46.6437 6.51745 47.0127 6.18952C47.4228 5.8411 47.9148 5.67714 48.5504 5.67714C49.063 5.67714 49.473 5.77962 49.7806 5.98457C49.9856 6.10754 50.3136 6.41497 50.7647 7.19379L51.0722 7.72667L54.3936 5.75912L54.0861 5.22624C52.7739 2.95126 50.9082 1.80353 48.5504 1.80353C46.8077 1.80353 45.352 2.33641 44.1629 3.38167C42.9737 4.42693 42.3587 5.75912 42.3587 7.33726C42.3587 9.67372 43.7733 11.4363 46.5412 12.6045L48.3249 13.3424C48.7554 13.5268 49.1245 13.7318 49.432 13.9162C49.7191 14.1007 49.9446 14.3057 50.1291 14.5106C50.2931 14.6951 50.4161 14.9 50.4777 15.146C50.5597 15.3919 50.6007 15.6583 50.6007 15.9453C50.6007 16.6831 50.3751 17.257 49.9036 17.7284C49.473 18.2203 48.899 18.4457 48.1814 18.4457C47.2793 18.4457 46.6232 18.1383 46.1516 17.4824C45.9876 17.257 45.7416 16.7446 45.5981 15.5354L45.516 14.859L41.4565 15.7608L41.5386 16.3347C41.8051 18.1998 42.5227 19.6754 43.6708 20.7207C44.8395 21.7659 46.3156 22.2988 48.0789 22.2988C49.9446 22.2988 51.5233 21.684 52.7739 20.4338C54.0246 19.204 54.6602 17.6259 54.6602 15.7608C54.6602 14.3467 54.2706 13.1374 53.4915 12.1537C52.7329 11.1904 51.5233 10.3911 49.9446 9.73521Z" fill="#211F21"/>
<path d="M62.8808 2.18262H58.8623V21.9606H62.8808V2.18262Z" fill="#211F21"/>
<path d="M4.61307 2.18262H0V21.9606H4.61307V2.18262Z" fill="#211F21"/>
<path d="M11.6853 2.18262L4.93994 12.0818L11.6853 21.9606H16.5444L9.79904 12.0818L16.5444 2.18262H11.6853Z" fill="#211F21"/>
<path d="M81.7026 14.1418L68.1709 0V21.9505H72.1894V9.87874L85.7211 24V2.1725H81.7026V14.1418Z" fill="#211F21"/>
<path d="M107.823 4.83507C105.813 2.82653 103.394 1.82227 100.585 1.82227C97.7559 1.82227 95.2956 2.82653 93.2863 4.81458C91.2566 6.80262 90.2314 9.20057 90.2314 11.9879C90.2314 15.1237 91.3591 17.7061 93.5939 19.6532C95.6031 21.3953 97.9199 22.2971 100.442 22.2971C103.312 22.2971 105.772 21.2928 107.802 19.3253C109.832 17.3577 110.836 14.9188 110.836 12.0904C110.857 9.28255 109.832 6.84361 107.823 4.83507ZM104.973 16.5994C103.743 17.8291 102.266 18.444 100.483 18.444C98.8425 18.444 97.4278 17.8496 96.1567 16.6404C94.8855 15.4311 94.2704 13.9145 94.2704 12.0289C94.2704 10.2253 94.865 8.77017 96.0952 7.54045C97.3253 6.31074 98.781 5.69588 100.544 5.69588C102.328 5.69588 103.784 6.29024 104.993 7.54045C106.203 8.77017 106.797 10.2458 106.797 12.0699C106.797 13.8735 106.203 15.3492 104.973 16.5994Z" fill="#211F21"/>
</svg>
